<?xml version="1.0" ?><svg id="Icons" viewBox="0 0 24 24" xmlns="http://www.w3.org/2000/svg"><defs><style>.cls-1{fill:#232323;}</style></defs><path class="cls-1" d="M19,1a4.982,4.982,0,0,0-3.6,1.545A10.873,10.873,0,0,0,13,2.051V1a1,1,0,0,0-2,0V2.051a10.873,10.873,0,0,0-2.4.494A4.988,4.988,0,1,0,1.545,9.6a11,11,0,1,0,20.91,0A4.988,4.988,0,0,0,19,1ZM2,6A2.971,2.971,0,0,1,6.553,3.456a11.062,11.062,0,0,0-4.1,4.1A2.974,2.974,0,0,1,2,6ZM12,22a9,9,0,1,1,9-9A9.011,9.011,0,0,1,12,22ZM17.447,3.456a2.971,2.971,0,0,1,4.1,4.1A11.062,11.062,0,0,0,17.447,3.456Z"/><path class="cls-1" d="M12,6a1,1,0,0,0-1,1v5.586L8.293,15.293a1,1,0,1,0,1.414,1.414l3-3A1,1,0,0,0,13,13V7A1,1,0,0,0,12,6Z"/></svg>